# xmcd
#
# Track frame offsets:
#	150
#	13503
#	26137
#	38335
#	54454
#	69855
#	84575
#	99794
#	111062
#	123447
#	136250
#	145762
#	160015
#	174936
#	185857
#	201626
#
# Disc length: 2771 seconds
#
# Revision: 2
# Processed by: cddbd v1.5.2PL0 Copyright (c) Steve Scherf et al.
# Submitted via: audiograbber 1.83.01
#
DISCID=cd0ad110
DTITLE=Diä urchigä Glarner and Gäste - Bärglieder and Bärgländler
DYEAR=2009
DGENRE=Volkstümlich
TTITLE0=Diä urchigä Glarner, Marcel Zumbrunn, Urs Moser - Dr Kari uf dr Reis
TTITLE1=Diä urchigä Glarner, Marcel Zumbrunn, Markus Sahli, Toni Nuusbaumer - T
TTITLE1=weralpspitz-Lied
TTITLE2=Diä urchigä Glarner, Louis Menar - Mit mim Schwyzerörgeli
TTITLE3=Diä urchigä Glarner, Marcel Zumbrunn, Markus Sahli, Urs Moser - Masamaz
TTITLE3=u im Umbaufieber
TTITLE4=Diä urchigä Glarner, Marcel Zumbrunn, Markus Sahli, Toni Nussbaumer - Ü
TTITLE4=si Musig vertriibt alli Sorge
TTITLE5=Diä urchigä Glarner, PB: Urs Lötscher - Die Rose vo Briene
TTITLE6=Diä urchigä Glarner, Marcel Zumbrunn, Urs Moser - Im Terassähüsli
TTITLE7=Diä urchigä Glarner, Marcel Zumbrunn, Markus Sahli, Mark Schuler - Heim
TTITLE7=atstolz
TTITLE8=Diä urchigä Glarner, Marcel Zumbrunn, Urs Moser - Juutzertänzli
TTITLE9=Diä urchigä Glarner, Bass: Mark Schuler - Ich schenke dir ein Edelweiss
TTITLE10=Diä urchigä Glarner, Bass: Heinz Städeli - Gstaader-Medley
TTITLE11=Diä urchigä Glarner, Marcel Zumbrunn, Markus Sahli, Toni Nussbaumer - 
TTITLE11=Uf höche Bärge
TTITLE12=Diä urchigä Glarner, Marcel Zumbrunn, Toni Nussbaumer - Für d'Grossfor
TTITLE12=maziunä
TTITLE13=Diä urchigä Glarner, Basse: Edi Holdener - Dr Älpler
TTITLE14=Diä urchigä Glarner, Marcel Zumbrunn, Urs Moser - Amuse-Chuche
TTITLE15=Marcel Zumbrunn, Markus Sahli - Nationalhymne
EXTD=
EXTT0=
EXTT1=
EXTT2=
EXTT3=
EXTT4=
EXTT5=
EXTT6=
EXTT7=
EXTT8=
EXTT9=
EXTT10=
EXTT11=
EXTT12=
EXTT13=
EXTT14=
EXTT15=
PLAYORDER=
